<?xml version="1.0" encoding="UTF-8"?>
<svg id="Layer_2" data-name="Layer 2" xmlns="http://www.w3.org/2000/svg" viewBox="0 0 70.85 70.85">
  <defs>
    <style>
      .cls-1 {
        stroke-width: 1.11px;
      }

      .cls-1, .cls-2, .cls-3, .cls-4, .cls-5, .cls-6, .cls-7, .cls-8, .cls-9, .cls-10, .cls-11, .cls-12 {
        stroke-miterlimit: 10;
      }

      .cls-1, .cls-7, .cls-9 {
        fill: none;
      }

      .cls-1, .cls-7, .cls-11 {
        stroke: #231f20;
      }

      .cls-2 {
        fill: #231f20;
      }

      .cls-2, .cls-3, .cls-4, .cls-5, .cls-6, .cls-9 {
        stroke-width: .55px;
      }

      .cls-2, .cls-3, .cls-6, .cls-9, .cls-12 {
        stroke: #969f3b;
      }

      .cls-3 {
        fill: #82a03d;
      }

      .cls-4 {
        stroke: #82a03d;
      }

      .cls-4, .cls-6, .cls-12 {
        fill: #969f3b;
      }

      .cls-5, .cls-13, .cls-10 {
        fill: #7e994a;
      }

      .cls-5, .cls-10 {
        stroke: #67923e;
      }

      .cls-14 {
        fill: #010101;
      }

      .cls-15, .cls-11 {
        fill: #fff;
      }

      .cls-16 {
        fill: #67923e;
      }

      .cls-17, .cls-8 {
        fill: #a967ab;
      }

      .cls-7, .cls-11 {
        stroke-width: .41px;
      }

      .cls-8 {
        stroke: #a967ab;
        stroke-width: 1.66px;
      }

      .cls-10 {
        stroke-width: .42px;
      }

      .cls-12 {
        stroke-width: .65px;
      }
    </style>
  </defs>
  <g id="Logo_export" data-name="Logo export">
    <circle class="cls-15" cx="35.42" cy="35.42" r="35.42"/>
    <g>
      <g>
        <path class="cls-17" d="m12.86,20.78c-.3.47-.55.88-.77,1.22-.21.34-.41.65-.58.93-.38.61-.7,1.13-.96,1.56-.26.42-.41.66-.43.71l-.49-.05c-.28-.67-.68-1.62-1.21-2.84-.52-1.22-1.04-2.4-1.56-3.54h-.01c-.16.25-.32.51-.48.76-.16.25-.28.45-.36.58-.33.52-.61.98-.86,1.39-.24.4-.38.63-.42.69l-.5-.27c.13-.22.3-.48.5-.8.2-.31.42-.66.65-1.03.36-.57.66-1.07.92-1.49.26-.42.4-.65.43-.7l.48.04c.13.3.45,1.05.97,2.25.52,1.2,1.11,2.57,1.77,4.1h.01c.11-.17.26-.4.44-.68.18-.28.37-.58.55-.87.36-.59.68-1.1.94-1.53.26-.43.4-.67.42-.69l.54.29Z"/>
        <path class="cls-17" d="m13.91,15.7l-2.48,2.66c.31.25.62.41.96.5.33.09.69.08,1.09-.02.23-.06.46-.16.7-.31s.46-.35.69-.59c.11-.12.21-.24.31-.35.1-.11.16-.19.19-.23l.37.4s-.07.09-.15.19c-.08.1-.19.23-.33.37-.35.37-.71.66-1.08.85-.37.2-.74.31-1.11.34-.31.03-.64,0-.99-.1-.35-.09-.66-.26-.95-.49-.3-.24-.53-.49-.69-.76-.16-.26-.27-.56-.32-.9-.04-.29-.02-.57.08-.85s.25-.54.46-.77c.2-.22.42-.38.65-.49s.48-.18.74-.18c.3,0,.6.05.91.16.31.12.63.31.96.57Zm-.8.17c-.41-.26-.79-.38-1.16-.36-.36.02-.68.17-.95.46-.27.29-.4.61-.38.97.02.36.17.72.47,1.09l2.02-2.16Z"/>
        <path class="cls-17" d="m20.1,14.36l-.53.39c-.06-.07-.25-.3-.58-.7-.33-.39-.54-.64-.61-.73-.11-.13-.28-.32-.49-.58-.22-.25-.38-.44-.48-.56-.28-.32-.54-.5-.78-.55-.23-.04-.5.04-.79.26-.18.13-.35.34-.53.64-.18.3-.33.61-.46.92.02.03.16.19.4.48.24.29.46.55.65.77.25.29.55.64.9,1.04.35.41.54.62.56.64l-.53.39s-.14-.17-.38-.47c-.24-.29-.6-.72-1.09-1.29-.22-.26-.48-.57-.79-.92-.3-.35-.62-.72-.97-1.11l.53-.39.38.46h.01c.19-.44.38-.8.57-1.09.19-.29.39-.5.59-.65.34-.25.7-.35,1.08-.3.38.05.72.24,1.01.59.27.31.5.59.69.82.19.23.35.42.47.56.19.23.44.51.73.85.3.34.45.51.47.53Z"/>
        <path class="cls-17" d="m27.22,7.7c.08.22.18.47.29.76.11.29.2.53.28.72.12.3.26.64.41,1.01.15.37.24.58.26.62-.03.01-.13.05-.28.12-.16.07-.3.12-.43.17-.75.26-1.46.42-2.11.47-.66.05-1.27-.04-1.85-.27-.35-.14-.68-.36-.98-.65-.3-.29-.54-.65-.72-1.09-.22-.54-.26-1.08-.13-1.62.14-.53.42-1.03.84-1.47.29-.3.65-.58,1.09-.84.43-.25.9-.47,1.41-.64.08-.03.15-.05.22-.07.07-.02.13-.04.18-.06l.26.51s-.06.02-.16.05c-.09.03-.16.05-.22.07-.5.17-.94.37-1.32.6-.38.22-.7.47-.95.73-.32.34-.54.73-.65,1.18-.11.45-.07.89.1,1.33.2.5.5.89.89,1.15.39.27.82.43,1.29.48.41.04.84.03,1.27-.03.44-.07.91-.19,1.41-.36-.02-.05-.12-.3-.31-.75-.19-.45-.44-1.08-.77-1.88l.66-.23Z"/>
        <path class="cls-17" d="m33.01,7.3c.11.68.21,1.29.3,1.82.09.53.13.83.14.89-.06.01-.23.05-.51.11-.28.06-.61.11-.98.17-.28.04-.56.06-.85.05s-.55-.04-.77-.1c-.29-.08-.54-.21-.73-.39-.19-.18-.31-.4-.35-.67-.05-.29,0-.55.17-.79.16-.24.41-.45.75-.64.22-.12.49-.23.81-.34.33-.11.76-.23,1.32-.35-.07-.27-.17-.49-.32-.65-.15-.16-.34-.27-.58-.33-.16-.04-.34-.06-.54-.07-.2,0-.42.01-.68.05-.16.02-.29.04-.4.07-.11.02-.24.05-.4.08l-.02-.53c.05,0,.14-.03.28-.05.13-.03.32-.06.56-.09.41-.06.78-.07,1.1-.03.33.03.61.12.84.26.22.14.4.32.54.54.14.22.24.56.31,1Zm-.45,1.29c-.02-.14-.05-.3-.08-.47-.03-.18-.06-.37-.1-.58-.2.04-.49.11-.87.22-.38.11-.69.23-.94.36-.22.11-.39.25-.51.42-.12.16-.17.34-.14.54.04.22.13.4.29.52.16.12.36.2.62.25.17.03.37.04.59.04.22,0,.45-.03.71-.06.07,0,.16-.02.26-.04.11-.02.22-.04.35-.07,0-.03-.02-.15-.06-.35-.03-.2-.07-.45-.12-.75Z"/>
        <path class="cls-17" d="m37.97,5.58c-.19.04-.5.14-.91.28-.41.14-.87.33-1.37.57,0,.04,0,.21,0,.51,0,.31,0,.58,0,.83,0,.38,0,.82,0,1.34,0,.52,0,.8,0,.86h-.68c0-.06,0-.24.01-.54,0-.3.01-.82.02-1.55,0-.3,0-.71,0-1.24,0-.53,0-1.03,0-1.5h.67s0,.76,0,.76h0c.38-.2.78-.38,1.19-.54.41-.16.73-.26.95-.32l.13.54Z"/>
        <path class="cls-17" d="m42.5,10.7s-.08-.01-.19-.03c-.1-.02-.19-.03-.26-.04-.59-.09-1.06-.19-1.42-.31-.36-.11-.7-.27-1.01-.48-.41-.27-.7-.59-.87-.96-.17-.37-.22-.75-.15-1.16.09-.48.29-.88.62-1.21.33-.33.75-.56,1.27-.69.3-.08.65-.13,1.04-.13.39,0,.78.02,1.18.08l.38-2.17.67.1c-.01.06-.09.5-.25,1.32-.15.81-.31,1.64-.46,2.48-.12.66-.23,1.26-.32,1.8-.09.54-.17,1-.24,1.38Zm-.05-3.41c.02-.13.05-.28.09-.47.03-.19.07-.36.09-.52-.36-.06-.7-.08-1.01-.08-.32,0-.6.04-.85.1-.4.1-.73.27-.99.53s-.43.58-.5.97c-.06.34-.02.65.12.93.14.28.36.52.64.72.23.16.5.3.8.4.3.1.62.18.94.23.02,0,.05,0,.06.01.02,0,.04,0,.06,0,0-.03.05-.28.14-.76.09-.48.22-1.17.38-2.07Z"/>
        <path class="cls-17" d="m48.72,9.81l-3.56-1.21c-.14.35-.19.69-.16,1.01.03.32.16.63.4.93.14.18.33.34.56.49.23.15.51.28.85.39.16.05.31.1.46.14.15.04.25.07.3.08l-.27.46s-.11-.03-.24-.07-.3-.09-.5-.16c-.5-.17-.91-.38-1.24-.63s-.57-.53-.73-.84c-.14-.26-.23-.56-.25-.89-.03-.33.02-.67.16-1,.14-.35.31-.64.52-.87.21-.23.47-.43.79-.59.27-.14.57-.22.89-.23.32-.02.63.03.94.13.29.1.53.23.73.39.2.16.35.35.45.57.11.25.17.53.16.85,0,.31-.09.66-.23,1.03Zm-.46-.63c.12-.44.1-.82-.05-1.13-.15-.31-.42-.53-.8-.66-.39-.13-.76-.13-1.12.02s-.67.4-.93.79l2.9.98Z"/>
        <path class="cls-17" d="m52.28,14.69l-.58-.32c.05-.08.22-.33.49-.75.28-.43.45-.69.51-.79.09-.14.23-.35.4-.64.18-.28.31-.49.39-.62.22-.36.31-.65.27-.87-.04-.22-.22-.42-.54-.6-.19-.11-.47-.18-.83-.23s-.73-.07-1.09-.07c-.02.03-.13.2-.34.52-.21.31-.39.59-.54.84-.2.32-.45.7-.73,1.15-.28.45-.43.69-.44.71l-.58-.32s.12-.19.33-.5c.21-.31.51-.78.91-1.41.18-.29.4-.62.64-1.01.24-.39.5-.8.77-1.24l.58.32-.32.49h0c.51.01.95.05,1.3.11.36.06.65.15.87.27.37.2.6.48.69.82.09.34.01.71-.23,1.09-.22.35-.41.64-.58.89-.16.25-.29.45-.39.61-.16.25-.36.56-.59.94-.23.38-.36.58-.37.59Z"/>
        <path class="cls-17" d="m59.33,18.32c-.26.23-.53.37-.83.42s-.6.03-.92-.05c-.29-.08-.58-.2-.86-.38-.28-.18-.56-.39-.82-.65-.15-.15-.3-.3-.45-.46-.15-.16-.24-.26-.26-.29l.41-.41s.11.14.24.29c.13.15.3.33.5.53.16.15.35.31.59.47.23.16.44.26.63.32.24.08.45.1.64.07.19-.03.38-.12.55-.27.17-.15.28-.33.33-.53s.03-.46-.06-.79c-.04-.15-.11-.33-.19-.56-.09-.22-.15-.43-.2-.61-.11-.39-.14-.73-.07-1,.06-.28.21-.52.45-.73.22-.2.46-.32.72-.38.26-.05.52-.06.78-.02.27.05.55.15.83.31.28.16.55.36.8.61.15.14.29.29.43.44.14.15.22.24.24.26l-.4.43s-.1-.13-.23-.28c-.13-.15-.3-.33-.5-.52-.15-.15-.32-.28-.51-.39-.19-.12-.39-.2-.59-.25-.16-.04-.33-.04-.51-.01-.18.03-.35.11-.5.25-.14.13-.23.28-.28.47-.04.19-.01.45.09.78.04.14.09.31.17.51.08.2.14.4.2.6.12.39.14.74.08,1.04-.07.31-.22.57-.46.78Z"/>
        <path class="cls-17" d="m63.47,22.41c-.43.27-.87.41-1.32.42-.44,0-.87-.09-1.29-.3-.33-.17-.65-.4-.95-.69-.3-.29-.56-.59-.78-.89l-1.96,1.22-.38-.53c.08-.05.45-.27,1.12-.67.66-.4,1.44-.87,2.32-1.42.38-.23.81-.5,1.29-.8.49-.3,1.02-.64,1.6-1,.05.07.1.14.15.21.05.07.1.14.15.21.36.5.62.94.79,1.29.17.36.26.72.27,1.08.02.37-.05.72-.22,1.04-.17.32-.43.59-.79.81Zm-.4-.51c.29-.18.5-.4.63-.66.13-.26.19-.55.17-.85-.02-.25-.09-.52-.21-.79-.12-.28-.28-.56-.48-.85-.02-.03-.05-.07-.06-.09-.02-.03-.04-.06-.07-.1-.06.04-.29.17-.68.41-.39.24-.86.52-1.4.85-.18.11-.41.25-.69.43-.28.18-.52.32-.7.44.19.26.4.51.65.75.25.24.48.41.69.53.36.2.72.29,1.07.29.36,0,.72-.12,1.09-.34Z"/>
        <path class="cls-17" d="m65.71,26.64c-.68.27-1.29.51-1.82.72s-.83.33-.9.36c-.03-.05-.11-.2-.24-.43-.13-.24-.27-.52-.42-.84-.11-.24-.2-.49-.27-.75-.07-.26-.1-.5-.09-.72,0-.28.08-.53.22-.75.13-.22.34-.38.61-.49.29-.12.58-.13.87-.05.29.08.58.26.86.51.18.16.36.38.56.64s.43.63.7,1.09c.27-.13.47-.28.59-.45.13-.17.19-.37.2-.61,0-.16-.02-.32-.07-.5-.05-.18-.12-.38-.22-.6-.06-.14-.12-.25-.17-.34-.05-.09-.11-.21-.18-.34l.55-.15s.07.12.13.24c.06.12.14.28.23.48.16.35.27.68.31.98.05.3.03.58-.06.82-.09.23-.23.44-.43.62-.2.18-.52.36-.96.53Zm-1.45-.08c.14-.06.3-.12.48-.19.18-.07.37-.15.58-.24-.09-.17-.24-.41-.45-.72-.21-.32-.41-.57-.61-.75-.17-.16-.36-.28-.56-.35-.2-.07-.4-.07-.6.01-.22.09-.38.22-.47.39s-.12.38-.1.62c.01.16.05.34.11.54.06.19.14.4.25.62.03.06.07.13.11.23.05.09.1.19.16.29.03-.01.15-.06.36-.14.21-.08.46-.18.75-.3Z"/>
      </g>
      <g>
        <path class="cls-14" d="m10.47,52.27c-.18.07-.36.07-.54.01-.18-.06-.3-.17-.37-.33-.07-.16-.06-.32.01-.48.08-.16.21-.28.39-.35.18-.07.36-.07.54,0,.18.06.3.17.37.33.07.16.07.31-.01.48-.08.16-.21.27-.39.34Z"/>
        <path class="cls-14" d="m11.86,56.8l-.22-.21,2.19-1.82h0c-.14.02-.49.07-1.05.17-.56.09-1.09.18-1.61.27l-.14-.21c.29-.36.62-.77.98-1.22.36-.45.57-.71.63-.78h0c-.05.01-.38.12-.97.33-.6.2-1.19.41-1.77.63l-.11-.26c.68-.23,1.36-.45,2.03-.69.67-.23,1.03-.36,1.09-.37l.21.22s-.2.25-.54.66c-.33.41-.7.87-1.11,1.39h0c.53-.08,1.11-.17,1.74-.28.62-.11.95-.17.97-.17l.13.25s-.3.25-.82.69-1.06.9-1.64,1.39Z"/>
        <path class="cls-14" d="m14.56,57.72c-.27.22-.51.41-.72.58-.21.17-.33.26-.35.28-.02-.02-.07-.07-.16-.15-.09-.08-.19-.18-.3-.3-.08-.09-.15-.18-.22-.28s-.11-.2-.14-.3c-.03-.12-.03-.24,0-.35.03-.11.1-.21.21-.3.11-.09.24-.14.38-.15.14,0,.29.03.45.1.1.05.21.11.33.2.12.09.28.21.46.37.1-.09.17-.19.21-.28.03-.09.04-.19,0-.29-.02-.07-.05-.14-.09-.21-.04-.07-.1-.14-.18-.22-.05-.05-.09-.09-.12-.12-.04-.03-.08-.07-.13-.12l.22-.14s.05.04.09.08c.04.04.1.1.17.17.12.13.21.25.27.38.06.12.09.24.08.36,0,.11-.04.22-.11.33s-.18.23-.36.37Zm-.66.18c.05-.04.12-.09.19-.15.07-.06.15-.12.23-.19-.06-.06-.16-.14-.29-.25s-.26-.18-.37-.24c-.1-.05-.2-.07-.3-.07-.1,0-.19.03-.26.09-.09.07-.14.15-.16.23s0,.18.04.28c.03.07.07.14.12.21.05.07.12.15.19.23.02.02.05.05.08.08.03.03.07.07.11.1.01-.01.06-.05.14-.11.08-.06.18-.14.29-.24Z"/>
        <path class="cls-14" d="m15.57,59.54c-.08.08-.17.13-.27.16s-.2.04-.31.02c-.11-.02-.22-.05-.33-.11-.11-.06-.22-.14-.34-.23-.05-.04-.1-.09-.15-.14-.05-.05-.08-.09-.1-.1l.18-.18s.05.05.11.11c.06.06.12.11.18.17.05.04.11.09.19.14.08.05.14.08.2.1.09.02.16.03.23.02.07-.01.13-.05.18-.1.05-.05.08-.1.09-.16,0-.06,0-.12-.01-.19-.02-.07-.04-.15-.09-.25-.04-.1-.08-.19-.1-.27-.03-.11-.03-.21,0-.3s.07-.19.16-.27c.08-.08.17-.13.28-.16s.22-.03.33,0c.09.02.18.06.27.11.09.05.18.12.26.19.06.06.12.1.16.14.04.04.06.06.07.07l-.17.19s-.05-.04-.1-.1c-.05-.05-.11-.11-.18-.16-.06-.05-.12-.1-.18-.13-.06-.03-.12-.06-.17-.07-.08-.02-.14-.02-.2,0-.06.02-.11.04-.15.08-.05.05-.08.1-.08.16,0,.06,0,.13.02.2.02.07.05.15.09.25s.07.18.08.24c.03.12.04.23.02.32-.02.09-.07.18-.15.26Z"/>
        <path class="cls-14" d="m17.09,60.69c-.07.08-.16.14-.26.18s-.2.05-.31.04-.22-.04-.34-.09c-.12-.05-.23-.12-.35-.21-.05-.04-.11-.08-.17-.13-.06-.05-.09-.08-.1-.09l.16-.2s.05.04.11.1c.06.05.13.1.19.15.05.04.12.08.2.12.08.04.15.07.2.08.09.02.16.02.23,0,.07-.02.12-.06.18-.12.04-.05.07-.11.07-.16,0-.06,0-.12-.03-.19-.02-.06-.06-.15-.11-.25-.05-.1-.09-.19-.12-.26-.04-.1-.05-.2-.04-.3s.06-.19.13-.28c.07-.08.16-.14.26-.18s.21-.04.33-.03c.09.01.19.04.28.09.09.05.19.1.27.17.07.05.13.09.17.13.04.03.07.06.08.06l-.15.21s-.05-.04-.11-.09c-.06-.05-.12-.1-.19-.15-.07-.05-.13-.09-.19-.12-.06-.03-.12-.05-.18-.06-.08-.01-.14,0-.2.02-.06.02-.1.05-.14.09-.04.05-.07.11-.07.17,0,.06,0,.13.04.2.02.06.06.14.11.24.05.1.09.18.11.24.04.12.06.22.04.32-.01.1-.06.19-.13.27Z"/>
        <path class="cls-14" d="m19.39,61.35c-.19.27-.37.52-.52.73-.15.21-.24.34-.26.36-.02-.01-.09-.05-.2-.1s-.24-.13-.38-.21c-.1-.06-.2-.14-.29-.22-.09-.08-.17-.17-.22-.25-.07-.11-.1-.22-.11-.34,0-.12.04-.23.11-.34.08-.12.19-.2.33-.24.13-.04.29-.05.46-.02.11.02.24.05.38.1.14.05.33.13.55.24.07-.12.11-.22.12-.32,0-.1-.02-.19-.08-.28-.04-.06-.09-.12-.15-.18-.06-.06-.14-.11-.24-.17-.06-.04-.11-.07-.15-.09-.04-.02-.1-.05-.16-.08l.17-.19s.06.03.11.06c.05.03.12.07.21.12.15.09.28.19.37.29.09.1.16.21.18.33.03.11.02.23,0,.35-.03.12-.11.27-.24.44Zm-.58.34c.04-.06.09-.12.14-.19.05-.07.11-.15.16-.24-.08-.04-.2-.1-.36-.16-.16-.07-.3-.11-.43-.13-.11-.02-.21-.02-.31,0-.1.02-.17.08-.23.15-.06.09-.09.18-.08.27s.05.17.12.26c.05.06.11.12.18.18.07.06.16.12.25.17.03.02.06.03.1.06.04.02.09.05.13.07,0-.01.04-.06.1-.14.06-.08.13-.18.21-.3Z"/>
        <path class="cls-14" d="m22.16,61.6s-.09.16-.23.4c-.14.23-.26.46-.39.67-.08.15-.17.29-.25.45-.09.15-.16.29-.23.41-.13.23-.27.39-.42.48-.15.09-.32.14-.51.15-.14,0-.31-.02-.49-.06-.18-.05-.39-.12-.62-.24l.09-.22c.16.07.3.14.45.18.14.05.27.08.4.08.19.01.35-.02.48-.09.12-.08.23-.18.31-.33-.02,0-.03-.02-.05-.02-.02,0-.03-.02-.05-.02-.17-.08-.33-.18-.47-.31-.15-.12-.26-.25-.33-.39-.07-.14-.11-.29-.12-.45s.05-.34.16-.53c.11-.19.25-.33.44-.42.18-.09.38-.14.6-.14.15,0,.31.02.47.07.16.05.34.12.53.21.04.02.07.04.11.05.04.02.08.04.12.06Zm-.87.94c.06-.1.13-.23.22-.39.09-.16.18-.32.27-.48,0,0-.02,0-.03-.01,0,0-.02,0-.02-.01-.13-.06-.25-.11-.36-.15-.11-.03-.23-.05-.37-.06-.17,0-.33.03-.48.1-.15.08-.27.19-.36.35-.09.16-.13.31-.12.46.01.15.06.28.16.41.06.08.14.17.24.25.1.08.22.16.36.22.01,0,.03.01.04.02.01,0,.02.01.03.02,0-.02.06-.1.14-.25s.18-.31.28-.5Z"/>
        <path class="cls-14" d="m24.04,63.52l-1.54-.6c-.08.17-.11.32-.11.47,0,.15.05.3.14.45.06.09.13.17.23.24.1.07.22.14.36.19.07.03.14.05.2.07.07.02.11.04.13.04l-.14.21s-.05-.01-.11-.03c-.06-.02-.13-.04-.22-.08-.22-.08-.39-.19-.53-.31-.14-.12-.24-.26-.3-.4-.05-.12-.08-.27-.08-.42,0-.16.04-.32.11-.47.07-.16.16-.3.26-.41.1-.11.23-.2.37-.27.13-.06.26-.1.4-.1s.28.02.41.07c.13.05.23.11.31.19.08.08.14.17.18.28.04.12.05.25.04.4s-.06.31-.14.49Zm-.18-.3c.07-.21.08-.39.02-.53-.05-.15-.16-.25-.33-.32-.17-.07-.33-.07-.5,0-.16.06-.31.19-.45.36l1.26.49Z"/>
        <path class="cls-14" d="m27.23,64.59c-.06.17-.17.31-.33.39-.17.09-.34.11-.51.06-.18-.05-.31-.15-.39-.31-.08-.16-.1-.33-.04-.5.06-.17.17-.3.33-.39.17-.09.34-.11.51-.06.18.05.31.15.39.31.08.16.1.32.04.5Z"/>
        <path class="cls-14" d="m31.67,63.83s-.12-.02-.29-.05-.37-.07-.61-.11c-.11-.02-.22-.04-.33-.06-.11-.02-.2-.03-.26-.04-.03.17-.08.37-.13.59-.05.23-.09.41-.12.56.02,0,.08.01.18.03.1.02.19.03.26.05.24.04.47.08.68.12.21.03.33.05.36.06l-.05.25s-.16-.03-.4-.07c-.24-.04-.46-.08-.65-.12-.06-.01-.14-.02-.24-.04-.1-.02-.16-.03-.18-.03-.05.27-.1.52-.15.76-.05.24-.09.44-.11.58l-.31-.05c.02-.09.05-.25.1-.48.05-.23.12-.56.2-.99.03-.17.08-.39.13-.67.06-.28.11-.56.17-.86.11.02.24.04.39.07.15.03.31.06.48.09.25.04.47.08.63.11.17.03.26.04.28.05l-.05.25Z"/>
        <path class="cls-14" d="m33.64,65.53c-.04.33-.07.62-.1.87s-.05.4-.05.43c-.03,0-.11,0-.23,0-.13,0-.27-.01-.44-.03-.12-.01-.25-.04-.37-.07-.12-.03-.23-.08-.32-.13-.12-.07-.2-.16-.26-.26-.06-.1-.08-.22-.07-.35.02-.14.07-.26.17-.35.1-.09.23-.17.4-.22.11-.03.24-.05.39-.07s.35-.02.6-.02c0-.13-.01-.25-.05-.33-.04-.09-.11-.16-.21-.22-.06-.04-.14-.07-.22-.09s-.18-.04-.29-.05c-.07,0-.13-.01-.18-.01s-.11,0-.18,0l.06-.25s.07,0,.13,0c.06,0,.14,0,.25.02.18.02.34.05.48.1.13.05.24.12.33.21.08.09.13.19.16.31.03.12.03.28,0,.5Zm-.35.55c0-.07.02-.14.03-.23.01-.09.02-.18.03-.28-.09,0-.22,0-.4,0-.18,0-.32.03-.45.06-.11.03-.2.08-.27.14-.07.06-.12.14-.13.23-.01.11,0,.2.06.27.05.07.13.13.23.18.07.03.15.06.25.08.09.02.2.04.31.05.03,0,.07,0,.12,0,.05,0,.1,0,.16,0,0-.02,0-.07.02-.17.01-.1.03-.22.04-.36Z"/>
        <path class="cls-14" d="m35.97,66.69l-.03.25s-.03,0-.06,0c-.03,0-.05,0-.07,0-.19,0-.37-.03-.54-.07-.17-.04-.32-.1-.45-.18-.18-.11-.31-.24-.41-.41-.1-.17-.14-.35-.13-.56,0-.18.06-.35.16-.5.1-.15.22-.27.38-.36.14-.08.3-.15.49-.19.19-.04.38-.06.59-.05.02,0,.03,0,.05,0,.02,0,.03,0,.04,0v.25s-.01,0-.03,0c-.01,0-.02,0-.03,0-.17,0-.31,0-.43.02-.12.02-.24.05-.35.09-.16.06-.29.16-.4.3-.1.14-.16.29-.16.45,0,.18.03.34.12.47.08.13.2.24.33.31.12.06.24.11.38.14s.27.04.42.05c.02,0,.05,0,.08,0,.03,0,.05,0,.06,0Z"/>
        <path class="cls-14" d="m36.94,64.1h-.34s0-.33,0-.33h.34s0,.33,0,.33Zm.06,2.81h-.3s0-.17,0-.41c0-.24-.01-.48-.02-.71,0-.16,0-.33-.02-.53,0-.19-.01-.41-.02-.65h.3c0,.22,0,.42,0,.6,0,.18,0,.36.01.52,0,.31.02.57.03.8,0,.23.02.35.02.37Z"/>
        <path class="cls-14" d="m39.41,65.44c.03.33.06.62.09.88.02.26.04.4.04.43-.03,0-.1.02-.23.04-.12.02-.27.04-.44.05-.12.01-.25.01-.38,0-.13-.01-.24-.03-.34-.07-.13-.05-.23-.12-.31-.21-.08-.09-.13-.2-.14-.33-.01-.14.02-.26.09-.37.08-.11.19-.2.35-.28.1-.05.22-.1.37-.14.15-.04.34-.08.59-.13-.02-.13-.06-.24-.12-.32-.06-.08-.14-.14-.25-.17-.07-.03-.15-.04-.23-.05-.09,0-.19,0-.3,0-.07,0-.13.01-.18.02-.05,0-.11.02-.18.02v-.25s.07,0,.13-.02c.06,0,.14-.02.25-.03.18-.02.34,0,.49.02.14.03.26.08.36.15.09.07.17.16.22.28.05.11.09.27.11.48Zm-.23.6c0-.07-.01-.14-.02-.23s-.02-.18-.03-.28c-.09.01-.22.04-.39.08-.17.04-.31.09-.42.14-.1.05-.18.11-.24.18-.06.07-.08.16-.08.25.01.11.05.19.11.26.06.06.15.11.27.14.08.02.16.03.26.03.1,0,.2,0,.31,0,.03,0,.07,0,.12-.01.05,0,.1-.01.15-.02,0-.02,0-.07-.02-.17,0-.1-.02-.22-.03-.36Z"/>
        <path class="cls-14" d="m40.78,66.57l-.3.04s-.04-.24-.11-.66c-.07-.42-.13-.77-.18-1.05-.03-.18-.07-.4-.12-.68-.05-.27-.1-.58-.16-.92l.3-.04c.04.23.08.5.13.8.05.3.09.56.13.77.08.46.15.85.21,1.19.06.34.09.52.09.54Z"/>
        <path class="cls-14" d="m42.79,65.54c.02.11.02.21-.01.3-.03.09-.08.18-.16.25-.07.07-.17.13-.28.19-.12.05-.25.09-.4.12-.07.01-.14.03-.21.04-.08.01-.12.02-.14.02l-.07-.24s.07,0,.15-.02.17-.02.25-.04c.07-.01.14-.03.23-.06.09-.03.15-.06.2-.09.07-.05.12-.11.14-.17.03-.06.03-.12.01-.2-.01-.07-.04-.12-.09-.16-.04-.04-.1-.07-.17-.1-.07-.03-.16-.05-.28-.08-.12-.03-.22-.05-.3-.08-.11-.04-.2-.09-.27-.17-.07-.07-.12-.16-.15-.27-.02-.11-.02-.21.02-.3.04-.1.1-.18.19-.25.07-.06.15-.11.25-.15.1-.04.2-.07.31-.09.09-.02.16-.03.22-.04.06,0,.09-.01.1-.02l.08.24s-.06.01-.14.02c-.07.01-.16.02-.25.04-.08.02-.15.04-.22.06s-.12.06-.16.09c-.06.05-.1.1-.11.16-.02.06-.02.11,0,.16.01.06.05.12.1.16s.11.07.19.1c.07.02.16.05.27.07.11.03.2.05.26.07.12.04.22.1.29.17.07.07.12.16.14.26Z"/>
        <path class="cls-14" d="m45.96,64.11c.06.17.06.34-.02.5-.08.16-.2.27-.37.33-.17.06-.34.04-.51-.04-.17-.08-.29-.21-.35-.38-.06-.17-.06-.34.02-.5.08-.16.2-.27.37-.33.17-.06.34-.04.51.04.17.08.29.21.35.38Z"/>
        <path class="cls-14" d="m50.85,59.75c.14.7.28,1.39.43,2.06.15.67.23,1.02.24,1.05l-.22.11s-.23-.2-.63-.54c-.4-.34-.88-.75-1.46-1.22h0c.11.59.22,1.16.33,1.72.11.55.17.85.18.88l-.22.12s-.28-.25-.75-.65c-.46-.4-1.05-.89-1.75-1.48l.2-.24s.25.22.7.6c.45.39.94.81,1.47,1.26h0c-.11-.62-.23-1.2-.34-1.74-.11-.54-.17-.82-.18-.84l.24-.13s.26.23.72.63c.46.4.9.78,1.33,1.14h0c-.15-.69-.28-1.3-.4-1.85-.12-.54-.19-.82-.19-.85l.3-.04Z"/>
        <path class="cls-14" d="m53.5,59.95c.21.26.4.5.57.7s.26.32.28.35c-.02.02-.08.06-.17.14-.09.08-.21.16-.35.26-.1.07-.2.13-.32.18-.12.05-.23.09-.33.11-.14.02-.26.01-.38-.02-.12-.04-.22-.11-.3-.21-.09-.11-.13-.23-.13-.36,0-.13.05-.27.13-.41.06-.09.13-.19.23-.3.1-.11.24-.24.43-.4-.09-.1-.19-.17-.28-.21-.1-.04-.2-.05-.31-.03-.07.01-.15.04-.23.07-.08.04-.16.09-.25.15-.06.04-.1.07-.14.1-.04.03-.08.07-.14.11l-.14-.22s.05-.04.1-.08c.05-.04.11-.08.2-.14.15-.1.29-.18.43-.22.14-.05.27-.06.4-.05.12.02.24.06.35.13.11.07.23.19.37.36Zm.14.62c-.04-.05-.09-.11-.15-.18-.06-.07-.12-.14-.18-.22-.07.05-.16.14-.29.25-.12.12-.22.23-.28.33-.06.09-.09.18-.1.27,0,.09.02.18.08.25.07.09.15.14.24.16.09.02.19.02.3-.01.08-.02.16-.05.24-.1.08-.04.17-.1.26-.16.02-.02.06-.04.09-.07.04-.03.08-.06.12-.09-.01-.01-.05-.06-.11-.14-.06-.08-.14-.17-.23-.29Z"/>
        <path class="cls-14" d="m56.32,59.26l-.05.27s-.15-.04-.4-.09c-.26-.06-.56-.12-.92-.2h0c.03.32.06.6.09.86.03.26.05.39.05.41h-.28s0-.17-.03-.43c-.02-.26-.05-.55-.08-.87h0c-.22-.05-.44-.1-.66-.14s-.44-.09-.68-.13l.05-.27c.18.04.39.09.61.13.22.05.44.1.66.14h0c-.02-.18-.04-.37-.06-.57-.02-.2-.05-.41-.08-.63h.27c.02.22.03.43.05.62.02.2.03.4.05.61h0c.37.08.69.14.95.19.27.05.41.08.44.09Z"/>
        <path class="cls-14" d="m54.97,56.71l-.24.22-.26-.24.24-.22.25.24Zm2.12,2l-.21.2s-.13-.13-.31-.3c-.18-.17-.36-.34-.54-.51-.12-.11-.25-.24-.4-.37-.15-.14-.31-.29-.5-.46l.21-.2c.17.16.32.31.46.44.14.13.27.25.4.37.23.22.44.4.61.56.17.16.27.25.29.26Z"/>
        <path class="cls-14" d="m59.02,56.77l-.2.21s-.15-.12-.34-.28c-.19-.16-.31-.26-.36-.29-.06-.05-.16-.13-.29-.23-.13-.1-.22-.18-.28-.22-.16-.13-.3-.19-.41-.2-.11,0-.22.05-.33.16-.06.07-.12.18-.17.32-.05.15-.08.29-.11.44.01.01.09.08.23.19.14.12.27.22.38.31.14.12.32.26.52.42.2.16.31.25.32.26l-.2.21s-.08-.07-.22-.19c-.14-.12-.35-.29-.63-.52-.13-.11-.28-.23-.45-.37-.17-.14-.36-.29-.56-.45l.2-.21.22.18h0c.04-.21.08-.39.14-.53.06-.14.12-.25.19-.33.13-.13.28-.2.45-.2.18,0,.35.07.52.21.16.13.29.24.4.33.11.09.2.17.27.23.11.09.25.2.42.34.17.14.26.21.27.21Z"/>
        <path class="cls-14" d="m58.64,53.38s.16.11.39.27c.23.16.45.31.66.45.14.1.29.2.44.29.15.1.29.19.41.28.23.15.38.31.45.46.08.15.11.31.09.49-.02.13-.06.28-.14.44-.08.16-.19.34-.34.53l-.23-.12c.1-.13.19-.26.26-.38.07-.12.12-.24.15-.36.04-.18.04-.33-.03-.45-.06-.12-.16-.23-.3-.33-.01.01-.02.03-.03.04-.01.01-.02.03-.03.04-.11.14-.24.27-.39.39-.15.12-.31.2-.47.24-.16.05-.32.06-.5.04-.18-.02-.36-.09-.54-.22-.19-.13-.31-.28-.38-.46s-.09-.37-.06-.57c.02-.14.07-.28.14-.42.07-.14.17-.29.31-.46.02-.03.05-.06.07-.09.02-.03.05-.06.08-.1Zm.88.93c-.1-.06-.22-.15-.38-.26-.16-.11-.31-.21-.47-.31,0,0-.01.01-.02.02,0,0-.01.01-.02.02-.09.11-.16.21-.21.31-.05.09-.09.21-.12.33-.03.16-.02.31.04.46.06.15.17.28.33.38.15.1.31.16.47.17.16.01.31-.02.46-.08.1-.04.2-.11.3-.19.1-.08.2-.18.29-.29,0-.01.02-.02.03-.03,0,0,.01-.02.02-.03-.02-.01-.1-.07-.24-.17-.15-.1-.31-.21-.49-.33Z"/>
        <path class="cls-14" d="m61.52,51.17c.17.09.29.21.35.38s.05.33-.04.48c-.09.15-.22.25-.41.29s-.36.02-.54-.06c-.17-.09-.28-.21-.34-.38-.06-.17-.05-.33.04-.48.09-.15.22-.25.41-.29.18-.04.36-.02.53.06Z"/>
      </g>
    </g>
    <g>
      <ellipse class="cls-11" cx="35.09" cy="38.01" rx="26.48" ry="24.59"/>
      <path class="cls-9" d="m35.06,57.45c-2.99,0-5.78-.85-8.08-2.3v5.62c2.54.78,5.26,1.2,8.08,1.2,1.04,0,2.07-.06,3.07-.17v-4.66c-.99.2-2.02.31-3.07.31Z"/>
      <path class="cls-9" d="m57.36,39.37c-.16-.23-.19-.28-.14-.33.05-.05.1-.02.23.07.26.16.86.52,1.65.52.53,0,1.13-.27,1.66-.51.04-.02.09-.04.13-.06.01-.27.02-.53.02-.8-.29-.14-.6-.21-.93-.21-.54,0-1.05.2-1.44.55l-.21.19v-11.22c-1.61-3.07-3.9-5.77-6.68-7.93v9.51l-.12-.13c-.21-.24-.53-.37-.86-.37s-.65.14-.86.37l-.12.13v-10.89c-2.48-1.59-5.28-2.78-8.28-3.48v.53l-.12-.11c-.4-.37-.93-.57-1.49-.57s-1.09.2-1.49.57l-.18.16v-1.14c-1.01-.11-2.03-.17-3.07-.17-2.82,0-5.54.42-8.08,1.2v8.17l-.12-.11c-.49-.45-1.29-.45-1.78,0l-.12.11v-7.47c-4.69,1.85-8.68,4.96-11.47,8.86v13.76l-.18-.2c-.31-.34-.76-.52-1.23-.51-.48.01-.91.22-1.2.58l-.12.15v-8.75c-1,2.55-1.55,5.31-1.55,8.18s.55,5.62,1.55,8.18v-6.14l.27.24c.33.29.75.43,1.2.41.45-.03.86-.22,1.14-.54l.12-.13v11.2c2.79,3.9,6.77,7.01,11.47,8.86v-6.45c-2.67-2.43-4.34-5.81-4.34-9.55s1.66-7.12,4.34-9.55v-9.97l.12.11c.23.22.54.35.87.35.33,0,.65-.11.88-.33l.14-.13v8.44c2.31-1.45,5.09-2.3,8.08-2.3,1.06,0,2.08.11,3.07.31v-14.36l.12.11c.75.69,1.94.76,2.77.15l.32-.24v15.37c4.82,2.17,8.15,6.75,8.15,12.04,0,.51-.03,1.02-.09,1.51.2.11.53.27.89.27.32,0,.68-.1,1-.18.4-.1.71-.19.86-.08.06.04.09.1.09.18,0,.52-.77,1-1.58,1-.72,0-1.07-.43-1.32-.79-.69,4.47-3.77,8.23-8,10.13v5.14c3.03-.7,5.85-1.91,8.35-3.5v-11.17l.16.18c.21.24.53.37.86.37s.65-.14.86-.37l.12-.13v9.71c2.76-2.16,5.03-4.85,6.63-7.89v-7.87l.12.11c.34.32.8.5,1.29.5.36,0,.69-.09.99-.27.01-.09.02-.17.03-.26-.26.06-.54.09-.83.09-1.48,0-2.29-.95-2.57-1.36Zm-45.23.88c-1.01,0-1.62-.77-1.98-1.22-.04-.05-.07-.09-.1-.13-.13-.15-.15-.18-.1-.23.04-.04.09-.02.18.04.2.12.72.45,1.38.45.47,0,1.03-.18,1.48-.33.48-.16.83-.27,1-.16.06.04.09.1.09.18,0,.56-.82,1.39-1.94,1.39Zm15.34-16.65s-.04.05-.09.12c-.03.03-.05.07-.08.11-.26.37-.59.83-1.32.83-.8,0-1.51-.46-1.51-.98,0-.08.03-.15.09-.18.15-.09.41.02.79.16.35.14.74.29,1.07.29.51,0,.89-.37.96-.44l.04-.05.11.07-.04.05Zm14.23-7.41c-.3.38-1.12.78-2.03.78-1.25,0-1.9-.87-2.14-1.2-.21-.28-.24-.33-.19-.38.05-.05.11-.02.27.08.27.16.84.5,1.46.5.46,0,.95-.18,1.39-.33.47-.17.88-.32,1.14-.2.11.05.19.14.23.28.05.15,0,.31-.13.47Zm10.01,29.08l-.12-.13c-.21-.23-.52-.36-.84-.36s-.63.13-.84.36l-.26.29.07-15.05.16.18c.21.24.53.37.86.37s.65-.14.86-.37l.12-.13v14.85Zm.4-15.83l-.04.06c-.19.31-.58.95-1.36.95-.81,0-1.58-.59-1.58-1.04,0-.07.03-.13.08-.16.14-.09.41,0,.79.12.34.11.73.24,1.06.24.44,0,.8-.25.95-.36.08-.06.13-.09.18-.05.05.04.03.08-.08.25Z"/>
      <path class="cls-9" d="m26.98,47.22v7.62c2.29,1.48,5.08,2.36,8.08,2.36,1.06,0,2.08-.11,3.07-.31v-3.3l1.58,1.72,1.63-1.51v2.04c4.18-1.93,7.2-5.72,7.77-10.19-.04-.07-.04-.1,0-.14,0,0,.02-.01.03-.02.05-.46.08-.94.08-1.42,0-5.15-3.21-9.61-7.87-11.76v2.12l-3.21-.35v-2.82c-.99-.2-2.02-.31-3.07-.31-3,0-5.79.87-8.08,2.36v5.16h-.07v.18h0v.13h-1.94v-3.88c-2.51,2.37-4.06,5.62-4.06,9.19s1.55,6.82,4.06,9.19v-6.04h2.01Z"/>
      <path class="cls-6" d="m49.68,18.25v-.61c-2.49-1.55-5.29-2.71-8.28-3.39v.52c3,.7,5.8,1.9,8.28,3.48Z"/>
      <path class="cls-6" d="m58.33,27.57v-1.11c-1.67-2.89-3.95-5.43-6.68-7.48v.65c2.79,2.17,5.08,4.87,6.68,7.93Z"/>
      <path class="cls-6" d="m13.5,51.21v.89c2.86,3.75,6.83,6.73,11.47,8.51v-.55c-4.69-1.85-8.68-4.96-11.47-8.86Z"/>
      <path class="cls-6" d="m41.34,61.25v.52c3.02-.69,5.84-1.85,8.35-3.41v-.61c-2.5,1.6-5.32,2.8-8.35,3.5Z"/>
      <path class="cls-6" d="m35.06,14.03c1.04,0,2.07.06,3.07.17v-.51c-1.01-.11-2.03-.17-3.07-.17-2.82,0-5.53.41-8.08,1.18v.53c2.54-.78,5.26-1.2,8.08-1.2Z"/>
      <path class="cls-6" d="m9.22,38c0-2.87.55-5.62,1.55-8.18v-1.37c-1.35,2.94-2.09,6.16-2.09,9.55s.75,6.61,2.09,9.55v-1.37c-1-2.55-1.55-5.31-1.55-8.18Z"/>
      <path class="cls-6" d="m51.7,56.33v.65c2.71-2.04,4.97-4.57,6.63-7.44v-1.11c-1.59,3.05-3.87,5.73-6.63,7.89Z"/>
      <path class="cls-2" d="m61.2,41.42c.05-.31.09-.63.12-.94-.04.02-.08.03-.12.05v.9Z"/>
      <path class="cls-6" d="m60.91,38.25c0,.27-.01.54-.02.8.2-.09.38-.17.55-.23,0-.07,0-.13,0-.2l-.04-.03c-.15-.14-.32-.25-.5-.34Z"/>
      <path class="cls-6" d="m24.97,15.94v-.55c-4.63,1.79-8.61,4.76-11.47,8.51v.89c2.79-3.9,6.77-7.01,11.47-8.86Z"/>
      <path class="cls-2" d="m61.03,40.68l.16-.15c-.14.05-.28.09-.43.12-.01.09-.02.17-.03.26.11-.06.21-.14.3-.23Z"/>
      <path class="cls-6" d="m13.37,40.35c-.3.28-.69.44-1.12.46-.49.03-.95-.13-1.31-.44l-.04-.04v6.18c.65,1.59,1.48,3.1,2.47,4.5v-10.67Z"/>
      <path class="cls-6" d="m13.37,51.92v-.9c-.98-1.41-1.81-2.91-2.47-4.5v1.33c.68,1.44,1.51,2.8,2.47,4.08Z"/>
      <path class="cls-2" d="m13.38,40.15c-.29.32-.69.51-1.14.54-.45.03-.88-.12-1.2-.41l-.27-.24v6.14c.02.06.05.11.07.17v-6.16l.15.14c.7.62,1.83.56,2.45-.14v10.93s.05.06.07.1v-11.2l-.12.13Z"/>
      <path class="cls-2" d="m10.83,46.35c-.02-.06-.05-.11-.07-.17v1.37s.05.1.07.14v-1.35Z"/>
      <path class="cls-2" d="m13.43,51.11v.9s.04.06.07.09v-.89s-.05-.06-.07-.1Z"/>
      <path class="cls-2" d="m10.99,40.32l-.15-.14v6.16c.02.06.05.11.07.17v-6.18l.04.04c.35.31.82.47,1.31.44.43-.02.82-.19,1.12-.46v10.67s.05.06.07.1v-10.93c-.62.69-1.74.76-2.45.14Z"/>
      <path class="cls-2" d="m13.37,51.92s.05.06.07.09v-.9s-.05-.06-.07-.1v.9Z"/>
      <path class="cls-2" d="m10.9,46.51c-.02-.06-.05-.11-.07-.17v1.35s.05.1.07.14v-1.33Z"/>
      <path class="cls-6" d="m10.9,38.21c.31-.3.73-.48,1.18-.49.02,0,.03,0,.05,0,.47,0,.91.18,1.23.5v-13.22c-.98,1.41-1.81,2.91-2.47,4.5v8.72Z"/>
      <path class="cls-6" d="m10.9,28.17v1.33c.65-1.59,1.48-3.1,2.47-4.5v-.9c-.96,1.28-1.78,2.64-2.47,4.08Z"/>
      <path class="cls-2" d="m10.89,38.42c.29-.35.72-.56,1.2-.58.47-.01.93.17,1.23.51l.18.2v-13.76s-.05.06-.07.1v13.49l-.06-.07c-.67-.74-1.91-.7-2.54.07v-8.73c-.02.06-.05.11-.07.17v8.75l.12-.15Z"/>
      <path class="cls-2" d="m10.83,29.66v-1.35s-.05.1-.07.14v1.37c.02-.06.05-.11.07-.17Z"/>
      <path class="cls-2" d="m13.43,24.89s.05-.06.07-.1v-.89s-.05.06-.07.09v.9Z"/>
      <path class="cls-2" d="m13.37,38.31l.06.07v-13.49s-.05.06-.07.1v13.22c-.32-.32-.76-.5-1.23-.5-.02,0-.03,0-.05,0-.45.01-.88.19-1.18.49v-8.72c-.02.06-.05.11-.07.17v8.73c.63-.77,1.87-.81,2.54-.07Z"/>
      <path class="cls-2" d="m13.37,24.99s.05-.06.07-.1v-.9s-.05.06-.07.09v.9Z"/>
      <path class="cls-2" d="m10.9,28.17s-.05.1-.07.14v1.35c.02-.06.05-.11.07-.17v-1.33Z"/>
      <path class="cls-6" d="m26.85,24.85c-.25.19-.56.29-.89.29-.32,0-.61-.11-.85-.29v9.55c.54-.48,1.12-.92,1.74-1.32v-8.23Z"/>
      <path class="cls-2" d="m25.04,24.7c.5.49,1.33.5,1.85.02l.03-.02v8.33s.05-.03.07-.04v-8.44l-.14.13c-.24.22-.55.34-.88.33-.33,0-.64-.13-.87-.35l-.12-.11v9.97s.05-.04.07-.06v-9.75Z"/>
      <path class="cls-6" d="m25.11,24.85c.24.18.53.29.85.29.33,0,.64-.1.89-.29v8.23s.05-.03.07-.04v-8.33l-.03.02c-.51.48-1.35.47-1.85-.02v9.75s.05-.04.07-.06v-9.55Z"/>
      <path class="cls-6" d="m25.11,23.11c.25-.19.56-.28.87-.28s.62.09.87.28v-7.84c-.59.18-1.17.39-1.74.61v7.23Z"/>
      <path class="cls-6" d="m25.11,15.34v.54c.57-.22,1.15-.42,1.74-.61v-.53c-.59.18-1.17.38-1.74.59Z"/>
      <path class="cls-2" d="m25.09,23.3c.49-.45,1.29-.45,1.78,0l.12.11v-8.17s-.05.01-.07.02v8h0c-.52-.48-1.36-.48-1.87,0h0s0,0,0,0v-7.34s-.05.02-.07.03v7.47l.12-.11Z"/>
      <path class="cls-2" d="m25.04,15.91v-.54s-.05.02-.07.03v.55s.05-.02.07-.03Z"/>
      <path class="cls-2" d="m26.91,15.26s.05-.01.07-.02v-.53s-.05.01-.07.02v.53Z"/>
      <path class="cls-2" d="m26.91,23.26h0s0-8,0-8c-.02,0-.05.01-.07.02v7.84c-.25-.19-.56-.28-.87-.28s-.62.09-.87.28v-7.23s-.05.02-.07.03v7.34c.52-.48,1.36-.48,1.87,0Z"/>
      <path class="cls-2" d="m25.11,15.34s-.05.02-.07.03v.54s.05-.02.07-.03v-.54Z"/>
      <path class="cls-2" d="m26.85,15.28s.05-.01.07-.02v-.53s-.05.01-.07.02v.53Z"/>
      <path class="cls-6" d="m25.11,60.12c.57.22,1.15.42,1.74.61v-5.67c-.62-.4-1.2-.84-1.74-1.32v6.38Z"/>
      <path class="cls-2" d="m24.97,53.62v6.45s.05.02.07.03v-6.41s-.05-.04-.07-.06Z"/>
      <path class="cls-2" d="m26.91,55.1v5.65s.05.01.07.02v-5.62s-.05-.03-.07-.04Z"/>
      <path class="cls-2" d="m26.85,55.06v5.67s.05.01.07.02v-5.65s-.05-.03-.07-.04Z"/>
      <path class="cls-2" d="m25.11,53.74s-.05-.04-.07-.06v6.41s.05.02.07.03v-6.38Z"/>
      <path class="cls-6" d="m38.27,61.79c1-.12,1.98-.28,2.93-.5v-5.11c-.93.41-1.91.73-2.93.94v4.67Z"/>
      <path class="cls-2" d="m41.28,56.14v5.13s.05-.01.07-.02v-5.14s-.05.02-.07.03Z"/>
      <path class="cls-2" d="m38.14,57.14v4.66s.05,0,.07,0v-4.67s-.05,0-.07.01Z"/>
      <path class="cls-2" d="m38.27,57.11s-.05,0-.07.01v4.67s.05,0,.07,0v-4.67Z"/>
      <path class="cls-2" d="m41.21,56.17v5.11s.05-.01.07-.02v-5.13s-.05.02-.07.03Z"/>
      <path class="cls-6" d="m41.21,16.92l-.1.08c-.84.62-2.03.58-2.83-.06v14.09c1.02.22,2.01.53,2.93.94v-15.05Z"/>
      <path class="cls-2" d="m38.21,16.79c.77.72,2,.78,2.86.16l.21-.16v15.21s.05.02.07.03v-15.37l-.32.24c-.83.61-2.02.54-2.77-.15l-.12-.11v14.36s.05,0,.07.01v-14.22Z"/>
      <path class="cls-2" d="m38.27,16.93c.8.64,1.99.68,2.83.06l.1-.08v15.05s.05.02.07.03v-15.21l-.21.16c-.86.63-2.08.56-2.86-.16v14.22s.05,0,.07.01v-14.09Z"/>
      <path class="cls-6" d="m38.27,15.05c.42-.36.96-.56,1.53-.56s1.06.18,1.47.51v-.26c-.98-.22-1.98-.4-2.99-.52v.83Z"/>
      <path class="cls-6" d="m38.27,13.71v.51c1.02.12,2.02.29,2.99.52v-.52c-.98-.22-1.98-.39-2.99-.5Z"/>
      <path class="cls-2" d="m38.31,15.19c.4-.37.93-.57,1.49-.57s1.09.2,1.49.57l.12.11v-.53s-.05-.01-.07-.02v.39c-.85-.79-2.22-.79-3.07,0l-.06.06v-.98s-.05,0-.07,0v1.14l.18-.16Z"/>
      <path class="cls-2" d="m41.34,14.75s.05.01.07.02v-.52s-.05-.01-.07-.02v.52Z"/>
      <path class="cls-2" d="m38.21,14.21v-.51s-.05,0-.07,0v.51s.05,0,.07,0Z"/>
      <path class="cls-6" d="m38.27,15.14c.85-.79,2.22-.79,3.07,0v-.39s-.05-.01-.07-.02v.26c-.41-.33-.92-.51-1.47-.51-.57,0-1.11.2-1.53.56v-.83s-.05,0-.07,0v.98l.06-.06Z"/>
      <path class="cls-6" d="m38.27,13.71s-.05,0-.07,0v.51s.05,0,.07,0v-.51Z"/>
      <path class="cls-2" d="m41.27,14.73s.05.01.07.02v-.52s-.05-.01-.07-.02v.52Z"/>
      <path class="cls-6" d="m49.82,28.81c.23-.19.53-.3.84-.3s.61.11.84.3v-9.28c-.54-.42-1.11-.81-1.69-1.19v10.47Z"/>
      <path class="cls-6" d="m49.82,17.72v.61c.58.38,1.14.77,1.69,1.19v-.65c-.55-.4-1.11-.79-1.69-1.16Z"/>
      <path class="cls-2" d="m49.8,29.01c.21-.24.53-.37.86-.37s.65.14.86.37l.12.13v-9.51s-.05-.04-.07-.05v9.39c-.48-.52-1.35-.52-1.83,0v-10.67s-.05-.03-.07-.04v10.89l.12-.13Z"/>
      <path class="cls-2" d="m49.75,18.29v-.61s-.05-.03-.07-.04v.61s.05.03.07.04Z"/>
      <path class="cls-2" d="m51.58,19.58s.05.04.07.05v-.65s-.05-.03-.07-.05v.65Z"/>
      <path class="cls-6" d="m51.58,28.97v-9.39s-.05-.04-.07-.05v9.28c-.23-.19-.53-.3-.84-.3s-.61.11-.84.3v-10.47s-.05-.03-.07-.04v10.67c.48-.52,1.35-.52,1.83,0Z"/>
      <path class="cls-2" d="m49.82,17.72s-.05-.03-.07-.04v.61s.05.03.07.04v-.61Z"/>
      <path class="cls-6" d="m51.51,19.53s.05.04.07.05v-.65s-.05-.03-.07-.05v.65Z"/>
      <path class="cls-6" d="m49.83,30.72l-.06,14.37.02-.03c.24-.26.58-.41.95-.41.31,0,.6.11.83.29v-14.19c-.23.19-.53.3-.84.3-.34,0-.65-.12-.89-.34Z"/>
      <path class="cls-2" d="m50.72,30.94c-.33,0-.65-.14-.86-.37l-.16-.18-.07,15.05.26-.29c.21-.23.52-.36.84-.36s.63.13.84.36l.12.13v-14.85l-.12.13c-.21.24-.53.37-.86.37Zm.91,14.17c-.47-.51-1.32-.51-1.79,0l-.14.16.06-14.71.04.05c.48.52,1.35.52,1.83,0v14.5Z"/>
      <path class="cls-6" d="m49.81,30.61l-.04-.05-.06,14.71.14-.16c.47-.51,1.32-.51,1.79,0v-14.5c-.48.52-1.35.52-1.83,0Zm1.76,14.34c-.23-.19-.52-.29-.83-.29-.37,0-.71.15-.95.41l-.02.03.06-14.37c.24.22.55.34.89.34.31,0,.61-.11.84-.3v14.19Z"/>
      <path class="cls-6" d="m51.56,46.95c-.23.19-.53.3-.84.3-.34,0-.65-.12-.89-.34v10.75c.6-.39,1.18-.8,1.73-1.23v-9.49Z"/>
      <path class="cls-6" d="m51.56,57.09v-.65c-.56.43-1.14.84-1.73,1.23v.61c.6-.37,1.17-.77,1.73-1.19Z"/>
      <path class="cls-2" d="m51.58,46.76c-.21.24-.53.37-.86.37s-.65-.14-.86-.37l-.16-.18v11.17s.05-.03.07-.04v-10.96l.04.05c.48.52,1.35.52,1.83,0v9.59s.05-.04.07-.05v-9.71l-.12.13Z"/>
      <path class="cls-2" d="m49.76,57.71s-.05.03-.07.04v.61s.05-.03.07-.04v-.61Z"/>
      <path class="cls-2" d="m51.63,56.38v.65s.05-.03.07-.05v-.65s-.05.04-.07.05Z"/>
      <path class="cls-2" d="m49.81,46.8l-.04-.05v10.96s.05-.03.07-.04v-10.75c.24.22.55.34.89.34.31,0,.61-.11.84-.3v9.49s.05-.04.07-.05v-9.59c-.48.52-1.35.52-1.83,0Z"/>
      <path class="cls-2" d="m51.56,57.09s.05-.03.07-.05v-.65s-.05.04-.07.05v.65Z"/>
      <path class="cls-2" d="m49.83,57.66s-.05.03-.07.04v.61s.05-.03.07-.04v-.61Z"/>
      <path class="cls-6" d="m58.47,27.83v10.65c.67-.6,1.65-.72,2.44-.37,0-.04,0-.07,0-.11,0-3.63-.88-7.08-2.45-10.17Z"/>
      <path class="cls-6" d="m61.39,36.3c-.26-3.44-1.28-6.69-2.92-9.6v1.13c1.57,3.09,2.45,6.54,2.45,10.17,0,.04,0,.07,0,.11.17.08.33.17.48.29v-2.1Z"/>
      <path class="cls-2" d="m58.54,38.59c.38-.36.89-.55,1.44-.55.33,0,.65.07.93.21,0-.02,0-.05,0-.07-.78-.36-1.76-.24-2.42.36l-.09.09v-10.93s-.05-.09-.07-.13v11.22l.21-.19Z"/>
      <path class="cls-2" d="m60.91,38.18s0,.05,0,.07c.18.09.35.2.5.34l.04.03s0-.06,0-.09c-.16-.15-.34-.27-.54-.36Z"/>
      <path class="cls-2" d="m58.4,27.7v-1.12s-.04-.08-.07-.12v1.11s.05.09.07.13Z"/>
      <path class="cls-2" d="m58.49,38.55c.65-.61,1.63-.73,2.42-.36,0-.02,0-.05,0-.07-.8-.35-1.78-.23-2.44.37v-10.65s-.04-.09-.07-.13v10.93l.09-.09Z"/>
      <path class="cls-2" d="m58.47,26.7s-.05-.08-.07-.12v1.12s.05.09.07.13v-1.13Z"/>
      <path class="cls-2" d="m61.39,36.3v2.1c-.15-.12-.31-.21-.48-.29,0,.02,0,.05,0,.07.19.09.38.21.54.36,0-.18,0-.36,0-.53,0-.57-.02-1.14-.06-1.7Z"/>
      <path class="cls-6" d="m59.74,41.3c-.47,0-.92-.15-1.27-.43v7.3c1.12-2.21,1.89-4.6,2.24-7.11-.29.15-.62.24-.97.24Z"/>
      <path class="cls-6" d="m61.06,42.23v-1.41c-.11.09-.23.17-.36.24-.35,2.51-1.12,4.9-2.24,7.11v1.13c1.23-2.19,2.12-4.57,2.59-7.08Z"/>
      <path class="cls-2" d="m58.45,40.68l-.12-.11v7.87s.05-.09.07-.13v-7.58h0s0,0,0,0c.63.58,1.59.67,2.31.26,0-.03,0-.05,0-.08-.29.17-.63.27-.99.27-.49,0-.95-.18-1.29-.5Z"/>
      <path class="cls-2" d="m58.4,48.31s-.05.09-.07.13v1.11s.05-.08.07-.12v-1.12Z"/>
      <path class="cls-2" d="m61.19,40.53l-.16.15c-.09.09-.2.16-.3.23,0,.03,0,.05,0,.08.13-.07.25-.16.36-.26l.06-.05v1.18c.02-.14.05-.28.07-.43v-.9s0,0,0,0Z"/>
      <path class="cls-2" d="m58.4,40.72v7.58s.05-.09.07-.13v-7.3c.35.28.8.43,1.27.43.34,0,.67-.08.97-.24,0-.03,0-.05.01-.08-.73.41-1.69.32-2.31-.26Z"/>
      <path class="cls-2" d="m61.06,40.82v1.41c.02-.13.05-.25.07-.38v-1.18l-.06.05c-.11.1-.23.19-.36.26,0,.03,0,.05-.01.08.13-.07.25-.15.36-.24Z"/>
      <path class="cls-2" d="m58.47,48.17s-.04.09-.07.13v1.12s.05-.08.07-.12v-1.13Z"/>
      <path class="cls-6" d="m13.91,38.78c-.11-.07-.5.06-.87.18-.46.15-1.03.34-1.53.34-.54,0-.98-.2-1.26-.36,0,0,0,.01.01.02.35.44.93,1.17,1.87,1.17,1.03,0,1.81-.77,1.81-1.26,0-.05-.02-.07-.03-.08Z"/>
      <path class="cls-2" d="m13.99,38.67c-.17-.11-.51,0-1,.16-.45.15-1.01.33-1.48.33-.66,0-1.19-.33-1.38-.45-.09-.06-.13-.08-.18-.04-.05.05-.02.07.1.23.03.04.07.08.1.13.36.46.97,1.22,1.98,1.22,1.13,0,1.94-.83,1.94-1.39,0-.08-.03-.15-.09-.18Zm-1.85,1.51c-1.08,0-1.69-.91-2.03-1.33-.39-.48.33.37,1.41.37s2.5-.89,2.5-.37-.8,1.33-1.87,1.33Z"/>
      <path class="cls-6" d="m11.51,39.23c-1.08,0-1.8-.84-1.41-.37.34.42.95,1.33,2.03,1.33s1.87-.8,1.87-1.33-1.42.37-2.5.37Zm.62.89c-.94,0-1.52-.73-1.87-1.17,0,0,0-.01-.01-.02.27.15.72.36,1.26.36.5,0,1.07-.19,1.53-.34.38-.12.76-.25.87-.18.01,0,.03.03.03.08,0,.5-.78,1.26-1.81,1.26Z"/>
      <path class="cls-6" d="m25.29,23.79c-.22-.09-.47-.19-.6-.19-.02,0-.04,0-.06.01-.02.01-.03.04-.03.08,0,.45.65.85,1.37.85.59,0,.87-.31,1.11-.64-.18.1-.41.19-.68.19-.35,0-.76-.16-1.12-.3Z"/>
      <path class="cls-2" d="m27.36,23.52c-.07.07-.44.44-.96.44-.33,0-.72-.16-1.07-.29-.37-.15-.64-.25-.79-.16-.06.04-.09.1-.09.18,0,.52.71.98,1.51.98.74,0,1.06-.46,1.32-.83.03-.04.05-.07.08-.11.05-.07.08-.11.09-.12l.04-.05-.11-.07-.04.05Zm-.04.17c-.29.4-.57.91-1.34.91s-1.44-.43-1.44-.91,1.1.34,1.87.34,1.22-.77.91-.34Z"/>
      <path class="cls-2" d="m26.41,24.03c-.77,0-1.87-.82-1.87-.34s.67.91,1.44.91,1.06-.51,1.34-.91c.31-.43-.14.34-.91.34Zm-.43.51c-.72,0-1.37-.41-1.37-.85,0-.04,0-.07.03-.08.01,0,.03-.01.06-.01.13,0,.37.1.6.19.36.14.77.3,1.12.3.27,0,.5-.09.68-.19-.24.33-.53.64-1.11.64Z"/>
      <path class="cls-6" d="m41.53,15.56c-.21-.09-.59.04-1.03.2-.45.16-.95.34-1.44.34-.64,0-1.22-.34-1.51-.51.03.04.06.08.08.11.4.53.99,1.14,2.03,1.14.87,0,1.63-.38,1.92-.73.07-.09.15-.23.11-.36-.03-.1-.08-.16-.16-.2Z"/>
      <path class="cls-2" d="m41.59,15.45c-.26-.12-.67.03-1.14.2-.43.16-.93.33-1.39.33-.62,0-1.18-.34-1.46-.5-.16-.1-.22-.13-.27-.08-.05.05-.02.1.19.38.25.33.9,1.2,2.14,1.2.91,0,1.72-.4,2.03-.78.13-.16.18-.33.13-.47-.04-.13-.12-.23-.23-.28Zm-1.92,1.46c-1.15,0-1.77-.75-2.09-1.17-.62-.83.33.3,1.48.3s2.45-1.06,2.69-.3c.16.49-.93,1.17-2.09,1.17Z"/>
      <path class="cls-6" d="m39.06,16.04c-1.15,0-2.11-1.13-1.48-.3.32.42.93,1.17,2.09,1.17s2.25-.68,2.09-1.17c-.25-.76-1.54.3-2.69.3Zm2.52.08c-.28.35-1.05.73-1.92.73-1.04,0-1.63-.61-2.03-1.14-.02-.03-.05-.07-.08-.11.29.17.87.51,1.51.51.49,0,.99-.18,1.44-.34.44-.16.82-.3,1.03-.2.07.03.13.1.16.2.04.13-.03.27-.11.36Z"/>
      <path class="cls-6" d="m49.95,29.49c-.23-.07-.47-.15-.59-.15-.03,0-.06,0-.07.02,0,0-.02.01-.02.06,0,.39.71.91,1.45.91s1.06-.6,1.24-.89h0c-.2.12-.52.29-.89.29-.36,0-.75-.13-1.11-.24Z"/>
      <path class="cls-2" d="m52,29.25c-.15.11-.51.36-.95.36-.33,0-.72-.12-1.06-.24-.38-.12-.65-.21-.79-.12-.05.03-.08.09-.08.16,0,.45.77,1.04,1.58,1.04s1.17-.64,1.36-.95l.04-.06c.1-.17.13-.2.08-.25-.05-.04-.09,0-.18.05Zm.04.17c-.17.27-.55.98-1.34.98s-1.51-.56-1.51-.98,1.07.25,1.86.25,1.3-.75.99-.25Z"/>
      <path class="cls-6" d="m51.06,29.67c-.79,0-1.86-.67-1.86-.25s.73.98,1.51.98,1.17-.71,1.34-.98c.31-.49-.2.25-.99.25Zm.89-.22c-.18.29-.55.89-1.24.89-.73,0-1.45-.52-1.45-.91,0-.05.02-.06.02-.06.02-.01.04-.02.07-.02.13,0,.36.08.59.15.35.11.75.24,1.11.24.38,0,.7-.16.89-.29h0Z"/>
      <path class="cls-4" d="m59.1,39.75c-.78,0-1.38-.34-1.67-.51.02.02.03.05.04.06.33.49,1.09,1.31,2.45,1.31.3,0,.58-.04.84-.1.05-.44.09-.88.11-1.32-.02,0-.04.02-.06.03-.54.25-1.16.53-1.72.53Z"/>
      <path class="cls-12" d="m61.52,38.96c-.2.08-.41.18-.63.29-.03.54-.07,1.07-.12,1.61.23-.06.44-.13.64-.21"/>
      <path class="cls-3" d="m57.42,39.34c-.5-.74.3.35,1.68.35.58,0,1.22-.31,1.78-.56,0-.02,0-.05,0-.07-.04.02-.08.04-.13.06-.53.24-1.13.51-1.66.51-.79,0-1.39-.36-1.65-.52-.13-.08-.18-.11-.23-.07-.05.05-.02.1.14.33.28.41,1.09,1.36,2.57,1.36.29,0,.57-.03.83-.09,0-.02,0-.04,0-.07-.26.06-.54.09-.83.09-1.39,0-2.18-.85-2.51-1.33Z"/>
      <path class="cls-2" d="m60.88,39.12c.2-.09.38-.17.55-.23,0-.02,0-.05,0-.07-.17.06-.36.14-.55.23,0,.02,0,.05,0,.07Z"/>
      <path class="cls-2" d="m60.76,40.58s0,.04,0,.07c.15-.03.3-.07.43-.12h0s0,0,0,0c.04-.01.08-.03.12-.05,0-.02,0-.05,0-.07-.18.07-.37.13-.57.17Z"/>
      <polygon class="cls-2" points="61.2 40.52 61.19 40.53 61.2 40.53 61.2 40.52"/>
      <path class="cls-3" d="m59.93,40.61c-1.36,0-2.12-.82-2.45-1.31-.01-.02-.03-.04-.04-.06.29.17.89.51,1.67.51.56,0,1.17-.28,1.72-.53.02,0,.04-.02.06-.03,0-.02,0-.05,0-.07-.57.26-1.21.56-1.78.56-1.39,0-2.19-1.09-1.68-.35.33.49,1.12,1.33,2.51,1.33.29,0,.57-.03.83-.09,0-.02,0-.04,0-.07-.26.06-.54.1-.84.1Z"/>
      <path class="cls-6" d="m60.77,40.52s0,.04,0,.07c.2-.04.39-.1.57-.17,0-.02,0-.05,0-.07-.17.07-.36.13-.56.18Z"/>
      <path class="cls-6" d="m60.88,39.2c.19-.09.38-.17.55-.23,0-.02,0-.05,0-.07-.17.06-.36.14-.55.23,0,.02,0,.05,0,.07Z"/>
      <path class="cls-6" d="m49.38,45.8c.25.38.57.84,1.28.84.8,0,1.44-.48,1.44-.88,0-.05-.02-.07-.03-.08-.1-.07-.43.02-.74.1-.33.09-.71.19-1.04.19-.37,0-.7-.15-.91-.26,0,.02,0,.05,0,.07h0Z"/>
      <path class="cls-2" d="m50.29,45.91c.8,0,1.88-.6,1.88-.14s-.71.94-1.51.94c-.72,0-1.06-.45-1.31-.82,0,.03,0,.06-.01.1.25.36.61.79,1.32.79.81,0,1.58-.49,1.58-1,0-.08-.03-.14-.09-.18-.15-.11-.46-.02-.86.08-.32.09-.69.18-1,.18-.37,0-.69-.16-.89-.27,0,.02,0,.05,0,.07.21.11.53.26.9.26Z"/>
      <path class="cls-2" d="m49.12,45.64c0-.05.01-.1.02-.15,0,0-.02,0-.03.02-.03.03-.03.07,0,.14Z"/>
      <path class="cls-6" d="m50.67,46.71c.8,0,1.51-.49,1.51-.94s-1.08.14-1.88.14c-.37,0-.69-.15-.9-.26,0,.02,0,.05,0,.07.21.11.54.26.91.26.33,0,.71-.1,1.04-.19.32-.08.64-.17.74-.1.01,0,.03.03.03.08,0,.4-.64.88-1.44.88-.72,0-1.03-.47-1.28-.84h0s0,.05-.01.08c.25.37.59.82,1.31.82Z"/>
      <path class="cls-2" d="m35.06,30.94c1.06,0,2.08.11,3.07.31v-.26c-.99-.2-2.02-.31-3.07-.31-2.99,0-5.78.85-8.08,2.3v.31c2.29-1.48,5.08-2.36,8.08-2.36Z"/>
      <path class="cls-2" d="m49.22,44.07c0,.48-.03.95-.08,1.42.05-.02.1.01.21.07.01,0,.03.02.05.03.06-.5.09-1,.09-1.51,0-5.29-3.33-9.87-8.15-12.04v.28c4.66,2.15,7.87,6.61,7.87,11.76Z"/>
      <path class="cls-2" d="m35.06,57.2c-3,0-5.79-.87-8.08-2.36v.31c2.31,1.45,5.09,2.3,8.08,2.3,1.06,0,2.08-.11,3.07-.31v-.26c-.99.2-2.02.31-3.07.31Z"/>
      <path class="cls-2" d="m49.22,45.8c-.05-.07-.08-.12-.1-.16-.58,4.47-3.59,8.26-7.77,10.19v.28c4.23-1.9,7.31-5.67,8-10.13-.03-.04-.05-.08-.08-.11l-.04-.06Z"/>
      <path class="cls-2" d="m20.91,44.07c0-3.58,1.55-6.82,4.06-9.19v-.36c-2.67,2.43-4.34,5.81-4.34,9.55s1.66,7.12,4.34,9.55v-.36c-2.51-2.37-4.06-5.62-4.06-9.19Z"/>
      <path class="cls-2" d="m26.85,33.08c-.62.4-1.2.84-1.74,1.32v.35c.54-.49,1.12-.95,1.74-1.36v-.31Z"/>
      <path class="cls-2" d="m26.91,33.34s.05-.03.07-.04v-.31s-.05.03-.07.04v.31Z"/>
      <path class="cls-2" d="m25.04,34.81v-.35s-.05.04-.07.06v.36s.05-.04.07-.06Z"/>
      <path class="cls-2" d="m26.85,33.39s.05-.03.07-.04v-.31s-.05.03-.07.04v.31Z"/>
      <path class="cls-2" d="m25.11,34.75v-.35s-.05.04-.07.06v.35s.05-.04.07-.06Z"/>
      <path class="cls-2" d="m25.11,53.39v.35c.54.48,1.12.92,1.74,1.32v-.31c-.62-.41-1.2-.87-1.74-1.36Z"/>
      <path class="cls-2" d="m26.91,54.8v.31s.05.03.07.04v-.31s-.05-.03-.07-.04Z"/>
      <path class="cls-2" d="m25.04,53.33s-.05-.04-.07-.06v.36s.05.04.07.06v-.35Z"/>
      <path class="cls-2" d="m25.04,53.33v.35s.05.04.07.06v-.35s-.05-.04-.07-.06Z"/>
      <path class="cls-2" d="m26.85,54.75v.31s.05.03.07.04v-.31s-.05-.03-.07-.04Z"/>
      <path class="cls-2" d="m38.27,56.86v.26c1.02-.22,2.01-.53,2.93-.94v-.28c-.93.42-1.91.74-2.93.96Z"/>
      <path class="cls-2" d="m38.14,56.88v.26s.05,0,.07-.01v-.26s-.05,0-.07.01Z"/>
      <path class="cls-2" d="m41.28,55.86v.28s.05-.02.07-.03v-.28s-.05.02-.07.03Z"/>
      <path class="cls-2" d="m38.21,56.87v.26s.05,0,.07-.01v-.26s-.05,0-.07.01Z"/>
      <path class="cls-2" d="m41.21,55.89v.28s.05-.02.07-.03v-.28s-.05.02-.07.03Z"/>
      <path class="cls-2" d="m38.27,31.03v.26c1.03.22,2.01.55,2.93.96v-.28c-.93-.41-1.91-.73-2.93-.94Z"/>
      <path class="cls-2" d="m41.28,32.28s.05.02.07.03v-.28s-.05-.02-.07-.03v.28Z"/>
      <path class="cls-2" d="m38.21,31.27v-.26s-.05,0-.07-.01v.26s.05,0,.07.01Z"/>
      <path class="cls-2" d="m41.21,32.25s.05.02.07.03v-.28s-.05-.02-.07-.03v.28Z"/>
      <path class="cls-2" d="m38.27,31.03s-.05,0-.07-.01v.26s.05,0,.07.01v-.26Z"/>
      <path class="cls-2" d="m49.34,45.73l.04.05s0-.05,0-.07c-.03-.02-.06-.03-.09-.05.01.02.03.04.04.06Z"/>
      <path class="cls-2" d="m49.14,45.48c0,.05-.01.1-.02.15.02.04.06.09.1.16l.04.06s.05.07.08.11c0-.03,0-.06.01-.1-.03-.04-.05-.08-.08-.12-.21-.31-.13-.25.11-.12,0-.02,0-.05,0-.07-.02,0-.03-.02-.05-.03-.11-.06-.17-.09-.21-.07Z"/>
      <path class="cls-2" d="m49.34,45.73s-.03-.04-.04-.06c.03.01.05.03.09.05,0-.02,0-.05,0-.07-.24-.13-.32-.2-.11.12.03.04.05.08.08.12,0-.03.01-.06.01-.1l-.04-.05Z"/>
      <g>
        <path class="cls-13" d="m44.36,53.17c-1.11,2.81,1.48,5.28,1.7,5.63.27-.45-.31-4.77-1.53-5.63h-.16Z"/>
        <g>
          <path class="cls-13" d="m44.36,53.17c.66.98,1.17,3.41,1.2,3.82"/>
          <path class="cls-15" d="m44.36,53.17c.92,1.02,1.26,2.48,1.2,3.82-.49-1.24-.79-2.55-1.2-3.82h0Z"/>
        </g>
      </g>
      <g>
        <path class="cls-13" d="m21.99,21.21c-.73,2.92-4.35,3.68-4.74,3.85.04-.52,3.08-3.84,4.6-3.93l.14.08Z"/>
        <g>
          <path class="cls-13" d="m21.99,21.21c-1.13.49-3,2.26-3.26,2.59"/>
          <path class="cls-15" d="m21.99,21.21c-1.08.86-2.12,1.81-3.26,2.59.75-1.18,1.89-2.21,3.26-2.59h0Z"/>
        </g>
      </g>
      <line class="cls-10" x1="13.1" y1="38" x2="16.61" y2="36.47"/>
      <line class="cls-10" x1="25.11" y1="23.11" x2="21.45" y2="21.25"/>
      <path class="cls-10" d="m26.73,23.04s4.32-1.01,4.32-.86"/>
      <line class="cls-10" x1="38.27" y1="15.05" x2="35.06" y2="14.03"/>
      <line class="cls-10" x1="49.82" y1="28.81" x2="45.54" y2="27.21"/>
      <line class="cls-10" x1="51.51" y1="28.45" x2="54.39" y2="27.7"/>
      <line class="cls-10" x1="58.36" y1="37.91" x2="54.39" y2="35.15"/>
      <line class="cls-10" x1="51.63" y1="44.91" x2="55.84" y2="43.99"/>
      <line class="cls-10" x1="10.9" y1="37.91" x2="8.7" y2="36.88"/>
      <g>
        <path class="cls-13" d="m16.6,36.38c-1.11,4.53,1.48,8.5,1.7,9.05.27-.73-.31-7.68-1.53-9.05h-.16Z"/>
        <g>
          <path class="cls-13" d="m16.6,36.38c.66,1.57,1.17,5.49,1.2,6.15"/>
          <path class="cls-15" d="m16.6,36.38c.96,1.88,1.26,4.06,1.2,6.15-.49-2.01-.78-4.13-1.2-6.15h0Z"/>
        </g>
      </g>
      <g>
        <path class="cls-13" d="m16.66,36.22c-.67.98,5,2.38,6.1,2.25-1.04-1.21-5.39-3.3-6.1-2.25Z"/>
        <g>
          <path class="cls-13" d="m16.72,36.34c1.53-.15,4.51,1.44,4.51,1.44"/>
          <path class="cls-15" d="m16.72,36.34c1.61-.21,3.19.59,4.51,1.44-1.47-.5-2.95-1.28-4.51-1.44h0Z"/>
        </g>
      </g>
      <g>
        <path class="cls-13" d="m22.01,21.25c1.51,4.53-2,8.5-2.3,9.05-.37-.73.42-7.68,2.08-9.05h.22Z"/>
        <g>
          <path class="cls-13" d="m22.01,21.25c-.89,1.57-1.6,5.49-1.63,6.15"/>
          <path class="cls-15" d="m22.01,21.25c-.65,1.95-1.07,4.17-1.63,6.15.02-2.12.45-4.36,1.63-6.15h0Z"/>
        </g>
      </g>
      <path class="cls-13" d="m30.37,22.84c-.24,2.27,0,7.02.94,8.4.69-1.52.62-6.34.08-8.54-.18-.74-.94-.64-1.02.14Z"/>
      <g>
        <path class="cls-13" d="m30.81,22.15c.38.88.76,7.22.49,7.4"/>
        <path class="cls-15" d="m30.81,22.15c.49,1.16.55,2.44.68,3.68.02,1.24.19,2.53-.19,3.73.06-.3.01-.61,0-.92-.2-2.05-.25-4.44-.48-6.48h0Z"/>
      </g>
      <g>
        <path class="cls-13" d="m30.13,21.96c1.01.23-1.02,3.99-1.68,4.48-.27-1.25.6-4.73,1.68-4.48Z"/>
        <g>
          <path class="cls-13" d="m30.18,22.06c-.9.71-1.4,3.18-1.4,3.18"/>
          <path class="cls-15" d="m30.18,22.06c-.71.94-.93,2.12-1.4,3.18.09-1.14.4-2.49,1.4-3.18h0Z"/>
        </g>
      </g>
      <g>
        <path class="cls-13" d="m31.05,21.81c2.13,4.2,6.81,5.85,7.35,6.16-.27-.73-5.35-5.87-7.23-6.25l-.13.09Z"/>
        <g>
          <path class="cls-13" d="m31.05,21.81c1.56.86,4.58,3.65,5.03,4.16"/>
          <path class="cls-15" d="m31.05,21.81c2,.91,3.68,2.45,5.03,4.16-1.72-1.29-3.37-2.8-5.03-4.16h0Z"/>
        </g>
      </g>
      <g>
        <path class="cls-13" d="m45.57,27.07c.84.57-2.58,3.33-3.4,3.55.26-1.25,2.5-4.16,3.4-3.55Z"/>
        <g>
          <path class="cls-13" d="m45.57,27.18c-1.13.34-2.6,2.45-2.6,2.45"/>
          <path class="cls-15" d="m45.57,27.18c-1.03.62-1.73,1.63-2.6,2.45.56-1.04,1.39-2.16,2.6-2.45h0Z"/>
        </g>
      </g>
      <g>
        <path class="cls-5" d="m46.27,27.49c-.49,2.96,2.58,4.91,2.87,5.2.17-.49-1.33-4.62-2.71-5.23l-.16.03Z"/>
        <g>
          <path class="cls-13" d="m46.27,27.49c.85.84,1.88,3.13,2,3.52"/>
          <path class="cls-15" d="m46.27,27.49c1.12.83,1.76,2.18,2,3.52-.75-1.12-1.33-2.35-2-3.52h0Z"/>
        </g>
      </g>
      <g>
        <path class="cls-13" d="m45.84,27.25c1.11,4.53-1.48,8.5-1.7,9.05-.27-.73.31-7.68,1.53-9.05h.16Z"/>
        <g>
          <path class="cls-13" d="m45.84,27.25c-.66,1.57-1.17,5.49-1.2,6.15"/>
          <path class="cls-15" d="m45.84,27.25c-.42,2.02-.71,4.14-1.2,6.15-.06-2.1.24-4.27,1.2-6.15h0Z"/>
        </g>
      </g>
      <g>
        <path class="cls-13" d="m54.32,27.22c1.01,2.85,4.69,3.3,5.09,3.44-.09-.51-3.44-3.57-4.96-3.53l-.13.09Z"/>
        <g>
          <path class="cls-13" d="m54.32,27.22c1.17.39,3.2,2,3.5,2.31"/>
          <path class="cls-15" d="m54.32,27.22c1.41.26,2.63,1.19,3.5,2.31-1.22-.68-2.34-1.54-3.5-2.31h0Z"/>
        </g>
      </g>
      <path class="cls-13" d="m54.6,44.23c-.65,4.6-4.57,7.5-4.98,7.95.02-.77,3.17-7.11,4.83-8l.15.05Z"/>
      <g>
        <path class="cls-13" d="m54.81,44.05c-1.2,1.27-3.16,4.77-3.43,5.38"/>
        <path class="cls-15" d="m54.81,44.05c-1.15,1.76-2.21,3.66-3.43,5.38.73-2,1.83-3.95,3.43-5.38h0Z"/>
      </g>
      <g>
        <path class="cls-13" d="m54.63,44.05c-.67,3.95,1.39,7.33,1.57,7.8.18-.64.18-6.82-1.39-7.68l-.18-.12Z"/>
        <g>
          <path class="cls-13" d="m54.63,44.05c.54,1.35,1.06,4.73,1.1,5.3"/>
          <path class="cls-15" d="m54.63,44.05c.86,1.62,1.15,3.48,1.1,5.3-.47-1.52-.82-3.73-1.1-5.3h0Z"/>
        </g>
      </g>
      <g>
        <path class="cls-13" d="m55.16,44.1c1.56,2.03,4.61,1.52,4.97,1.54-.21-.39-3.68-2.03-4.89-1.65l-.08.1Z"/>
        <g>
          <path class="cls-13" d="m55.16,44.1c1.03.04,3.08.84,3.4,1.02"/>
          <path class="cls-15" d="m55.16,44.1c1.21-.17,2.44.29,3.4,1.02-.3-.05-.59-.12-.88-.19-.55-.13-1.97-.63-2.52-.82h0Z"/>
        </g>
      </g>
      <g>
        <path class="cls-13" d="m23.31,47.97c-1.31,4.48-5.61,6.87-6.08,7.26.13-.76,4.16-6.65,5.94-7.33l.14.07Z"/>
        <g>
          <path class="cls-13" d="m23.31,47.97c-1.38,1.1-3.82,4.34-4.17,4.91"/>
          <path class="cls-15" d="m23.31,47.97c-1.39,1.61-2.72,3.36-4.17,4.91,1.02-1.9,2.38-3.69,4.17-4.91h0Z"/>
        </g>
      </g>
      <g>
        <path class="cls-13" d="m23.68,47.28c-2.31,4.23.44,8.7.64,9.28.5-.66.97-7.64-.42-9.25l-.22-.03Z"/>
        <g>
          <path class="cls-13" d="m23.68,47.28c.59,1.69.58,5.66.5,6.32"/>
          <path class="cls-15" d="m23.68,47.28c.84,1.97.86,4.24.5,6.32-.2-2.05-.21-4.29-.5-6.32h0Z"/>
        </g>
      </g>
      <g>
        <path class="cls-13" d="m44.03,15.57c.46,2.97,4,4,4.37,4.21,0-.52-2.72-4.07-4.23-4.28l-.14.07Z"/>
        <g>
          <path class="cls-13" d="m44.03,15.57c1.08.57,2.78,2.49,3.01,2.84"/>
          <path class="cls-15" d="m44.03,15.57c1.33.48,2.37,1.6,3.01,2.84-1.07-.87-2.01-1.89-3.01-2.84h0Z"/>
        </g>
      </g>
      <g>
        <path class="cls-13" d="m43.72,15.44c1.11,2.81-1.48,5.28-1.7,5.63-.27-.45.31-4.77,1.53-5.63h.16Z"/>
        <g>
          <path class="cls-13" d="m43.72,15.44c-.66.98-1.17,3.41-1.2,3.82"/>
          <path class="cls-15" d="m43.72,15.44c-.41,1.27-.71,2.58-1.2,3.82-.06-1.35.28-2.8,1.2-3.82h0Z"/>
        </g>
      </g>
      <g>
        <path class="cls-13" d="m31.89,14.21c-.9,2.88-4.57,3.45-4.96,3.6.07-.51,3.3-3.67,4.83-3.69l.13.09Z"/>
        <g>
          <path class="cls-13" d="m31.89,14.21c-1.15.43-3.13,2.1-3.41,2.42"/>
          <path class="cls-15" d="m31.89,14.21c-1.13.81-2.22,1.7-3.41,2.42.82-1.14,2.02-2.11,3.41-2.42h0Z"/>
        </g>
      </g>
      <g>
        <path class="cls-13" d="m33.2,14.16c-1.11,2.81,1.48,5.28,1.7,5.63.27-.45-.31-4.77-1.53-5.63h-.16Z"/>
        <g>
          <path class="cls-13" d="m33.2,14.03c.66.98,1.17,3.41,1.2,3.82"/>
          <path class="cls-15" d="m33.2,14.03c.92,1.02,1.26,2.48,1.2,3.82-.49-1.24-.79-2.55-1.2-3.82h0Z"/>
        </g>
      </g>
      <g>
        <path class="cls-13" d="m54.34,35.34c.33,3.99,3.17,6.84,3.46,7.26.01-.66-1.52-6.68-3.26-7.18l-.2-.08Z"/>
        <g>
          <path class="cls-13" d="m54.34,35.34c.86,1.2,2.2,4.38,2.39,4.92"/>
          <path class="cls-15" d="m54.34,35.34c1.23,1.38,1.98,3.13,2.39,4.92-.83-1.37-1.72-3.45-2.39-4.92h0Z"/>
        </g>
      </g>
      <g>
        <path class="cls-13" d="m44.55,52.38c1.44,2.68,5.16,2.63,5.58,2.72-.17-.49-3.96-3.07-5.46-2.83l-.11.11Z"/>
        <g>
          <path class="cls-13" d="m44.55,52.38c1.22.23,3.48,1.55,3.82,1.81"/>
          <path class="cls-15" d="m44.55,52.38c1.44.07,2.8.83,3.82,1.81-1.31-.51-2.55-1.21-3.82-1.81h0Z"/>
        </g>
      </g>
      <g>
        <path class="cls-13" d="m44.06,44.61c-.73,2.92-4.35,3.68-4.74,3.85.04-.52,3.08-3.84,4.6-3.93l.14.08Z"/>
        <g>
          <path class="cls-13" d="m44.06,44.61c-1.13.49-3,2.26-3.26,2.59"/>
          <path class="cls-15" d="m44.06,44.61c-1.08.86-2.12,1.81-3.26,2.59.75-1.18,1.89-2.21,3.26-2.59h0Z"/>
        </g>
      </g>
      <g>
        <path class="cls-13" d="m44.06,44.61c-.73,2.92-4.35,3.68-4.74,3.85.04-.52,3.08-3.84,4.6-3.93l.14.08Z"/>
        <g>
          <path class="cls-13" d="m44.06,44.61c-1.13.49-3,2.26-3.26,2.59"/>
          <path class="cls-15" d="m44.06,44.61c-1.08.86-2.12,1.81-3.26,2.59.75-1.18,1.89-2.21,3.26-2.59h0Z"/>
        </g>
      </g>
      <g>
        <path class="cls-13" d="m54.37,27.43c1.99,4.26.24,8.61.14,9.19-.41-.67-1.22-7.61-.29-9.16l.16-.03Z"/>
        <g>
          <path class="cls-13" d="m54.37,27.43c-.33,1.66-.06,5.6.04,6.25"/>
          <path class="cls-15" d="m54.37,27.43c-.02,1.45.08,3.23.07,4.68,0,.52-.01,1.04-.03,1.57-.47-2.04-.62-4.22-.04-6.25h0Z"/>
        </g>
      </g>
      <ellipse class="cls-1" cx="35.06" cy="44.07" rx="14.29" ry="13.25"/>
      <g>
        <path class="cls-16" d="m54.31,35.55c-1.76,2.51-5.44,2.08-5.87,2.12.23-.47,4.3-2.64,5.77-2.24l.1.12Z"/>
        <g>
          <path class="cls-16" d="m54.31,35.55c-1.24.1-3.65,1.18-4.02,1.41"/>
          <path class="cls-15" d="m54.31,35.55c-1.33.47-2.65,1.04-4.02,1.41,1.13-.88,2.57-1.48,4.02-1.41h0Z"/>
        </g>
      </g>
      <ellipse class="cls-7" cx="35.06" cy="37.92" rx="26.48" ry="24.59"/>
    </g>
    <g>
      <ellipse class="cls-8" cx="35.06" cy="44.05" rx="14.52" ry="13.47"/>
      <g>
        <path class="cls-17" d="m34.91,33.4c-3.66,2.33-3.61,9.2,0,11.4,3.86-2.33,3.65-9.27,0-11.4Z"/>
        <path class="cls-15" d="m34.91,33.4c-3.39,2.53-3.43,8.8.15,11.16,0,0-.29,0-.29,0,3.67-2.31,3.67-8.69.14-11.16h0Zm0,0c4.08,2.31,4.06,9.37,0,11.73-3.97-2.41-3.94-9.33,0-11.73h0Z"/>
      </g>
      <path class="cls-15" d="m43.21,36.45c-4.13-.24-8.91,4.04-8.06,8.31,0,0-.23-.2-.23-.2,4.23.56,9.02-3.74,8.29-8.1,1.22,4.63-4.02,9.39-8.56,8.63-1.11-4.64,4.07-9.31,8.56-8.63h0Z"/>
      <path class="cls-15" d="m27.26,35.81c-1.01,4.23,3.23,8.89,7.45,8.77,0,0-.24.18-.24.18.8-2.06-.16-4.36-1.5-5.99-1.39-1.68-3.45-3-5.71-2.96,3.47-.36,6.72,2.47,7.76,5.66.37,1.16.4,2.49-.09,3.66,0,0-.18.01-.18.01-4.48.15-8.98-4.93-7.49-9.33h0Z"/>
      <path class="cls-15" d="m47.21,43.54c-3.17-2.8-9.66-2.19-11.96,1.44,0,0-.04-.32-.04-.32,3,3.1,9.6,2.47,12-1.11-2.25,4.07-9.2,4.79-12.42,1.49,0,0-.14-.15-.14-.15l.1-.17c2.48-3.89,9.31-4.47,12.46-1.17h0Z"/>
      <path class="cls-15" d="m22.65,43.41c2.41,3.52,8.87,4.29,11.97,1.35,0,0-.05.32-.05.32-1.04-2-3.37-2.96-5.52-3.28-2.21-.29-4.71,0-6.4,1.6,2.43-2.64,6.81-2.57,9.84-1.04,1.11.58,2.12,1.46,2.68,2.64,0,0-.14.14-.14.14-3.33,3.13-10.12,2.26-12.38-1.74h0Z"/>
      <path class="cls-15" d="m35.2,55.94c3.35-2.6,3.24-8.86-.38-11.15,0,0,.29,0,.29,0-3.63,2.38-3.48,8.76.08,11.16h0Zm0,0c-4.12-2.23-4.26-9.29-.24-11.73,4.01,2.33,4.14,9.25.24,11.73h0Z"/>
    </g>
  </g>
</svg>